<?xml version="1.0" encoding="UTF-8"?>
<svg xmlns="http://www.w3.org/2000/svg" version="1.1" viewBox="0 0 500 500">
  <defs>
    <style>
      .cls-1 {
        fill: none;
        stroke: #b7b7b7;
        stroke-miterlimit: 10;
        stroke-width: 10px;
      }
    </style>
  </defs>
  <!-- Generator: Adobe Illustrator 28.7.1, SVG Export Plug-In . SVG Version: 1.2.0 Build 142)  -->
  <g>
    <g id="Layer_1">
      <path class="cls-1" d="M423.3,250c0-13.2,46.3-30.7,43.8-43.2-2.5-12.8-52-11.4-56.9-23.2-5-12,31-46,23.9-56.6s-52.3,9.6-61.5.4,11.2-54.3.4-61.5c-10.7-7.1-44.6,28.8-56.6,23.9-11.8-4.9-10.3-54.4-23.2-56.9s-30,43.8-43.2,43.8-30.7-46.3-43.2-43.8-11.4,52-23.2,56.9-46-31-56.6-23.9c-10.8,7.2,9.6,52.3.4,61.5s-54.3-11.2-61.5-.4,28.8,44.6,23.9,56.6-54.4,10.3-56.9,23.2,43.8,30,43.8,43.2-46.3,30.7-43.8,43.2c2.5,12.8,52,11.4,56.9,23.2s-31,46-23.9,56.6,52.3-9.6,61.5-.4c9.1,9.1-11.2,54.3-.4,61.5,10.7,7.1,44.6-28.8,56.6-23.9,11.8,4.9,10.3,54.4,23.2,56.9,12.5,2.5,30-43.8,43.2-43.8s30.7,46.3,43.2,43.8c12.8-2.5,11.4-52,23.2-56.9,12-5,46,31,56.6,23.9,10.8-7.2-9.6-52.3-.4-61.5s54.3,11.2,61.5.4-28.8-44.6-23.9-56.6,54.4-10.3,56.9-23.2c2.5-12.5-43.8-30-43.8-43.2Z"/>
      <path class="cls-1" d="M419,285.6c2.7-12.9,51.6-20.4,51.7-33.1s-48.6-21.8-50.9-34.3,39.8-38.5,35.1-50.4c-4.8-12-53.2-1.4-60.2-12.2s22.2-50.7,13.2-60c-8.9-9.2-49.6,19.1-60.3,11.7-10.5-7.2,1.2-55.3-10.8-60.4s-38.3,36.7-51.2,34c-12.9-2.7-20.4-51.6-33.1-51.7-13-.2-21.8,48.6-34.3,50.9s-38.5-39.8-50.4-35.1c-12,4.8-1.4,53.2-12.2,60.2-10.8,7-50.7-22.2-60-13.2s19.1,49.6,11.7,60.3-55.3-1.2-60.4,10.8,36.7,38.3,34,51.2-51.6,20.4-51.7,33.1c-.2,13,48.6,21.8,50.9,34.3s-39.8,38.5-35.1,50.4,53.2,1.4,60.2,12.2-22.2,50.7-13.2,60c8.9,9.2,49.6-19.1,60.3-11.7,10.5,7.2-1.2,55.3,10.8,60.4,11.6,5,38.3-36.7,51.2-34s20.4,51.6,33.1,51.7,21.8-48.6,34.3-50.9c12.7-2.4,38.5,39.8,50.4,35.1,12-4.8,1.4-53.2,12.2-60.2,10.8-7,50.7,22.2,60,13.2,9.2-8.9-19.1-49.6-11.7-60.3,7.2-10.5,55.3,1.2,60.4-10.8,5-11.6-36.7-38.3-34-51.2Z"/>
      <ellipse class="cls-1" cx="250" cy="250" rx="228.9" ry="228.1"/>
      <ellipse class="cls-1" cx="250" cy="250" rx="165.4" ry="164.8"/>
    </g>
  </g>
</svg>